{
  "accessors": [
    {
      "bufferView": 1,
      "componentType": 5126,
      "count": 1382,
      "max": [
        178.53419494628906,
        28.178207397460938,
        44.874099731445312
      ],
      "min": [
        -178.53419494628906,
        -47.79559326171875,
        -44.916599273681641
      ],
      "type": "VEC3"
    },
    {
      "bufferView": 1,
      "byteOffset": 16584,
      "componentType": 5126,
      "count": 1382,
      "max": [
        0.9999997615814209,
        1,
        0.98979896306991577
      ],
      "min": [
        -1,
        0,
        -0.00078127422602847219
      ],
      "type": "VEC3"
    },
    {
      "bufferView": 2,
      "componentType": 5126,
      "count": 1382,
      "max": [
        1,
        0.0004008101241197437,
        0,
        1
      ],
      "min": [
        -0.00078127440065145493,
        -0.00066025322303175926,
        -0.9999997615814209,
        1
      ],
      "type": "VEC4"
    },
    {
      "bufferView": 0,
      "componentType": 5125,
      "count": 2496,
      "max": [
        1381
      ],
      "min": [
        0
      ],
      "type": "SCALAR"
    }
  ],
  "asset": {
    "extras": {
      "author": "fernandogilmiranda (https://sketchfab.com/fernandogilmiranda)",
      "license": "CC-BY-4.0 (http://creativecommons.org/licenses/by/4.0/)",
      "source": "https://sketchfab.com/models/a3cd8618bb91405fb8e475689690f537",
      "title": "Awning"
    },
    "generator": "Sketchfab-3.18.7",
    "version": "2.0"
  },
  "bufferViews": [
    {
      "buffer": 0,
      "byteLength": 9984,
      "byteOffset": 0,
      "name": "floatBufferViews",
      "target": 34963
    },
    {
      "buffer": 0,
      "byteLength": 33168,
      "byteOffset": 9984,
      "byteStride": 12,
      "name": "floatBufferViews",
      "target": 34962
    },
    {
      "buffer": 0,
      "byteLength": 22112,
      "byteOffset": 43152,
      "byteStride": 16,
      "name": "floatBufferViews",
      "target": 34962
    }
  ],
  "buffers": [
    {
      "byteLength": 65264,
      "uri": "scene.bin"
    }
  ],
  "materials": [
    {
      "doubleSided": true,
      "emissiveFactor": [
        0,
        0,
        0
      ],
      "name": "material",
      "pbrMetallicRoughness": {
        "baseColorFactor": [
          0.80000000000000004,
          0.80000000000000004,
          0.80000000000000004,
          1
        ],
        "metallicFactor": 0,
        "roughnessFactor": 0.59999999999999998
      }
    }
  ],
  "meshes": [
    {
      "name": "Group_001_1_Mat_0",
      "primitives": [
        {
          "attributes": {
            "NORMAL": 1,
            "POSITION": 0,
            "TANGENT": 2
          },
          "indices": 3,
          "material": 0,
          "mode": 4
        }
      ]
    }
  ],
  "nodes": [
    {
      "children": [
        1
      ],
      "name": "RootNode (gltf orientation matrix)",
      "rotation": [
        -0.70710678118654746,
        -0,
        -0,
        0.70710678118654757
      ]
    },
    {
      "children": [
        2
      ],
      "name": "RootNode (model correction matrix)"
    },
    {
      "children": [
        3
      ],
      "matrix": [
        1,
        0,
        0,
        0,
        0,
        0,
        1,
        0,
        0,
        -1,
        0,
        0,
        0,
        0,
        0,
        1
      ],
      "name": "4add83bdc8e842f38fa6b559c14b923b.fbx"
    },
    {
      "children": [
        4,
        6
      ],
      "name": "RootNode"
    },
    {
      "children": [
        5
      ],
      "matrix": [
        -0.88420378241240449,
        -0.28152417913432509,
        -0.37273020769766185,
        0,
        -0.25941709294473697,
        0.95955413425337521,
        -0.10935554547144496,
        0,
        0.38844104193004558,
        -7.8478890053190753e-15,
        -0.92147357908097449,
        0,
        536.36163330078125,
        475.58642578125,
        174.29017639160156,
        1
      ],
      "name": "Cinema_4D_Editor"
    },
    {
      "name": ""
    },
    {
      "children": [
        7
      ],
      "matrix": [
        1,
        0,
        0,
        0,
        0,
        1,
        0,
        0,
        0,
        0,
        1,
        0,
        0,
        322.79559326171875,
        0,
        1
      ],
      "name": "Group_001_1"
    },
    {
      "mesh": 0,
      "name": "Group_001_1_Mat_0"
    }
  ],
  "scene": 0,
  "scenes": [
    {
      "name": "OSG_Scene",
      "nodes": [
        0
      ]
    }
  ]
}

