{
  "accessors": [
    {
      "bufferView": 2,
      "componentType": 5126,
      "count": 819,
      "max": [
        1,
        0.44960001111030579,
        0.36149001121520996
      ],
      "min": [
        -1,
        0.0040722601115703583,
        -0.29125899076461792
      ],
      "type": "VEC3"
    },
    {
      "bufferView": 2,
      "byteOffset": 9828,
      "componentType": 5126,
      "count": 819,
      "max": [
        0.983692467212677,
        0.99127209186553955,
        0.9912724494934082
      ],
      "min": [
        -0.98369723558425903,
        -0.99127209186553955,
        -0.9912724494934082
      ],
      "type": "VEC3"
    },
    {
      "bufferView": 3,
      "componentType": 5126,
      "count": 819,
      "max": [
        0.86725008487701416,
        0.99969905614852905,
        0.99953657388687134,
        1
      ],
      "min": [
        -0.86721473932266235,
        -0.99969887733459473,
        -0.99970453977584839,
        1
      ],
      "type": "VEC4"
    },
    {
      "bufferView": 1,
      "componentType": 5126,
      "count": 819,
      "max": [
        1,
        1
      ],
      "min": [
        0,
        0
      ],
      "type": "VEC2"
    },
    {
      "bufferView": 0,
      "componentType": 5125,
      "count": 2403,
      "max": [
        818
      ],
      "min": [
        0
      ],
      "type": "SCALAR"
    },
    {
      "bufferView": 2,
      "byteOffset": 19656,
      "componentType": 5126,
      "count": 373,
      "max": [
        0.99956101179122925,
        0.44960001111030579,
        0.36149001121520996
      ],
      "min": [
        -0.99671399593353271,
        0.0040722601115703583,
        -0.29126301407814026
      ],
      "type": "VEC3"
    },
    {
      "bufferView": 2,
      "byteOffset": 24132,
      "componentType": 5126,
      "count": 373,
      "max": [
        0.86415153741836548,
        0.99127209186553955,
        0.9912724494934082
      ],
      "min": [
        -0.13037903606891632,
        -0.99127209186553955,
        -0.9912724494934082
      ],
      "type": "VEC3"
    },
    {
      "bufferView": 3,
      "byteOffset": 13104,
      "componentType": 5126,
      "count": 373,
      "max": [
        0.82889419794082642,
        0.99969905614852905,
        0.99199676513671875,
        1
      ],
      "min": [
        -0.86627167463302612,
        -0.99969887733459473,
        -0.99970448017120361,
        1
      ],
      "type": "VEC4"
    },
    {
      "bufferView": 1,
      "byteOffset": 6552,
      "componentType": 5126,
      "count": 373,
      "max": [
        1,
        1
      ],
      "min": [
        0,
        0
      ],
      "type": "VEC2"
    },
    {
      "bufferView": 0,
      "byteOffset": 9612,
      "componentType": 5125,
      "count": 981,
      "max": [
        372
      ],
      "min": [
        0
      ],
      "type": "SCALAR"
    },
    {
      "bufferView": 2,
      "byteOffset": 28608,
      "componentType": 5126,
      "count": 3190,
      "max": [
        0.69394898414611816,
        0.3874410092830658,
        0.31434100866317749
      ],
      "min": [
        -0.69013500213623047,
        -0.44960001111030579,
        -0.36149001121520996
      ],
      "type": "VEC3"
    },
    {
      "bufferView": 2,
      "byteOffset": 66888,
      "componentType": 5126,
      "count": 3190,
      "max": [
        1,
        1,
        0.99991345405578613
      ],
      "min": [
        -1,
        -0.99998736381530762,
        -0.99997448921203613
      ],
      "type": "VEC3"
    },
    {
      "bufferView": 3,
      "byteOffset": 19072,
      "componentType": 5126,
      "count": 3190,
      "max": [
        1,
        0.98167037963867188,
        0.98746800422668457,
        1
      ],
      "min": [
        -1,
        -0.99282389879226685,
        -0.99954807758331299,
        -1
      ],
      "type": "VEC4"
    },
    {
      "bufferView": 1,
      "byteOffset": 9536,
      "componentType": 5126,
      "count": 3190,
      "max": [
        1,
        1
      ],
      "min": [
        0,
        0
      ],
      "type": "VEC2"
    },
    {
      "bufferView": 0,
      "byteOffset": 13536,
      "componentType": 5125,
      "count": 11004,
      "max": [
        3189
      ],
      "min": [
        0
      ],
      "type": "SCALAR"
    }
  ],
  "asset": {
    "extras": {
      "author": "berkgedik (https://sketchfab.com/berkgedik)",
      "license": "CC-BY-4.0 (http://creativecommons.org/licenses/by/4.0/)",
      "source": "https://sketchfab.com/3d-models/classic-park-bench-low-poly-01a5b64427984632bb44242da3813bb1",
      "title": "Classic Park Bench (Low Poly)"
    },
    "generator": "Sketchfab-5.73.1",
    "version": "2.0"
  },
  "bufferViews": [
    {
      "buffer": 0,
      "byteLength": 57552,
      "byteOffset": 0,
      "name": "floatBufferViews",
      "target": 34963
    },
    {
      "buffer": 0,
      "byteLength": 35056,
      "byteOffset": 57552,
      "byteStride": 8,
      "name": "floatBufferViews",
      "target": 34962
    },
    {
      "buffer": 0,
      "byteLength": 105168,
      "byteOffset": 92608,
      "byteStride": 12,
      "name": "floatBufferViews",
      "target": 34962
    },
    {
      "buffer": 0,
      "byteLength": 70112,
      "byteOffset": 197776,
      "byteStride": 16,
      "name": "floatBufferViews",
      "target": 34962
    }
  ],
  "buffers": [
    {
      "byteLength": 267888,
      "uri": "scene.bin"
    }
  ],
  "images": [
    {
      "uri": "textures/Metal_baseColor.jpeg"
    },
    {
      "uri": "textures/Metal_metallicRoughness.png"
    },
    {
      "uri": "textures/Metal_normal.png"
    },
    {
      "uri": "textures/Woods_baseColor.jpeg"
    },
    {
      "uri": "textures/Woods_metallicRoughness.png"
    },
    {
      "uri": "textures/Woods_normal.png"
    },
    {
      "uri": "textures/Wood_Slice_baseColor.jpeg"
    },
    {
      "uri": "textures/Wood_Slice_metallicRoughness.png"
    },
    {
      "uri": "textures/Wood_Slice_normal.png"
    }
  ],
  "materials": [
    {
      "doubleSided": true,
      "name": "Metal",
      "normalTexture": {
        "index": 2,
        "scale": 1,
        "texCoord": 0
      },
      "occlusionTexture": {
        "index": 1,
        "strength": 1,
        "texCoord": 0
      },
      "pbrMetallicRoughness": {
        "baseColorFactor": [
          1,
          1,
          1,
          1
        ],
        "baseColorTexture": {
          "index": 0,
          "texCoord": 0
        },
        "metallicFactor": 1,
        "metallicRoughnessTexture": {
          "index": 1,
          "texCoord": 0
        },
        "roughnessFactor": 1
      }
    },
    {
      "doubleSided": true,
      "name": "Woods",
      "normalTexture": {
        "index": 5,
        "scale": 1,
        "texCoord": 0
      },
      "occlusionTexture": {
        "index": 4,
        "strength": 1,
        "texCoord": 0
      },
      "pbrMetallicRoughness": {
        "baseColorFactor": [
          1,
          1,
          1,
          1
        ],
        "baseColorTexture": {
          "index": 3,
          "texCoord": 0
        },
        "metallicFactor": 1,
        "metallicRoughnessTexture": {
          "index": 4,
          "texCoord": 0
        },
        "roughnessFactor": 1
      }
    },
    {
      "doubleSided": true,
      "name": "Wood_Slice",
      "normalTexture": {
        "index": 8,
        "scale": 1,
        "texCoord": 0
      },
      "occlusionTexture": {
        "index": 7,
        "strength": 1,
        "texCoord": 0
      },
      "pbrMetallicRoughness": {
        "baseColorFactor": [
          1,
          1,
          1,
          1
        ],
        "baseColorTexture": {
          "index": 6,
          "texCoord": 0
        },
        "metallicFactor": 1,
        "metallicRoughnessTexture": {
          "index": 7,
          "texCoord": 0
        },
        "roughnessFactor": 1
      }
    }
  ],
  "meshes": [
    {
      "name": "defaultMaterial",
      "primitives": [
        {
          "attributes": {
            "NORMAL": 1,
            "POSITION": 0,
            "TANGENT": 2,
            "TEXCOORD_0": 3
          },
          "indices": 4,
          "material": 2,
          "mode": 4
        }
      ]
    },
    {
      "name": "defaultMaterial",
      "primitives": [
        {
          "attributes": {
            "NORMAL": 6,
            "POSITION": 5,
            "TANGENT": 7,
            "TEXCOORD_0": 8
          },
          "indices": 9,
          "material": 1,
          "mode": 4
        }
      ]
    },
    {
      "name": "defaultMaterial",
      "primitives": [
        {
          "attributes": {
            "NORMAL": 11,
            "POSITION": 10,
            "TANGENT": 12,
            "TEXCOORD_0": 13
          },
          "indices": 14,
          "material": 0,
          "mode": 4
        }
      ]
    }
  ],
  "nodes": [
    {
      "children": [
        1
      ],
      "name": "RootNode (gltf orientation matrix)",
      "rotation": [
        -0.70710678118654746,
        -0,
        -0,
        0.70710678118654757
      ]
    },
    {
      "children": [
        2
      ],
      "name": "RootNode (model correction matrix)"
    },
    {
      "children": [
        3,
        5,
        7
      ],
      "matrix": [
        1,
        0,
        0,
        0,
        0,
        -4.3711390063094768e-08,
        0.999999999999999,
        0,
        0,
        -0.999999999999999,
        -4.3711390063094768e-08,
        0,
        0,
        0,
        0,
        1
      ],
      "name": "Collada visual scene group"
    },
    {
      "children": [
        4
      ],
      "name": "Cube.002"
    },
    {
      "mesh": 0,
      "name": "defaultMaterial"
    },
    {
      "children": [
        6
      ],
      "name": "Cube.002"
    },
    {
      "mesh": 1,
      "name": "defaultMaterial"
    },
    {
      "children": [
        8
      ],
      "name": "Cube.001"
    },
    {
      "mesh": 2,
      "name": "defaultMaterial"
    }
  ],
  "samplers": [
    {
      "magFilter": 9729,
      "minFilter": 9987,
      "wrapS": 10497,
      "wrapT": 10497
    }
  ],
  "scene": 0,
  "scenes": [
    {
      "name": "OSG_Scene",
      "nodes": [
        0
      ]
    }
  ],
  "textures": [
    {
      "sampler": 0,
      "source": 0
    },
    {
      "sampler": 0,
      "source": 1
    },
    {
      "sampler": 0,
      "source": 2
    },
    {
      "sampler": 0,
      "source": 3
    },
    {
      "sampler": 0,
      "source": 4
    },
    {
      "sampler": 0,
      "source": 5
    },
    {
      "sampler": 0,
      "source": 6
    },
    {
      "sampler": 0,
      "source": 7
    },
    {
      "sampler": 0,
      "source": 8
    }
  ]
}

